<svg viewBox="0 0 153 33" fill="none" xmlns="http://www.w3.org/2000/svg">
    <path
      d="M11.7468 16.4731C11.7468 14.3756 13.4678 12.6546 15.5653 12.6546C17.6628 12.6546 19.3838 14.3756 19.3838 16.4731C19.3838 18.5706 17.6628 20.2916 15.5653 20.2916C13.4141 20.2916 11.7468 18.6244 11.7468 16.4731ZM15.5653 0.5C8.08969 0.5 1.79725 5.60924 0.0224609 12.5471C0.0224609 12.6008 0.0224609 12.6546 0.0224609 12.7084C0.0224609 13.1387 0.34515 13.4613 0.775402 13.4613H7.22918C7.55187 13.4613 7.82078 13.3 7.92834 13.0311C9.27288 10.1269 12.1771 8.13698 15.5653 8.13698C20.1905 8.13698 23.9552 11.9017 23.9552 16.5269C23.9552 21.1521 20.1905 24.9168 15.5653 24.9168C12.1771 24.9168 9.27288 22.9269 7.92834 20.0227C7.82078 19.7538 7.55187 19.5924 7.22918 19.5924H0.775402C0.34515 19.5387 0.0224609 19.8613 0.0224609 20.2916C0.0224609 20.3454 0.0224609 20.3992 0.0224609 20.4529C1.79725 27.3908 8.08969 32.5 15.5653 32.5C24.3855 32.5 31.5384 25.3471 31.5384 16.5269C31.5384 7.65294 24.3855 0.5 15.5653 0.5ZM57.3536 20.2378H55.2023C55.041 20.2378 54.9334 20.2916 54.8258 20.3992C53.5889 22.2815 51.4376 23.5185 49.0174 23.5185C45.0914 23.5185 41.972 20.3992 41.972 16.4731C41.972 12.5471 45.1452 9.42773 49.0174 9.42773C51.4376 9.42773 53.5889 10.6647 54.8258 12.5471C54.9334 12.6546 55.041 12.7084 55.2023 12.7084H57.3536C57.6225 12.7084 57.8376 12.4933 57.8376 12.2244C57.8376 12.1706 57.8376 12.063 57.7838 12.0092C56.1704 8.78235 52.8359 6.57731 49.0174 6.57731C43.5855 6.57731 39.1754 10.9874 39.1754 16.4193C39.1754 21.9588 43.5855 26.3151 49.0174 26.3151C52.8359 26.3151 56.1704 24.1101 57.7838 20.8832C57.8376 20.8294 57.8376 20.7756 57.8376 20.6681C57.8376 20.4529 57.6225 20.2378 57.3536 20.2378ZM63.9149 3.35042C63.9149 4.37227 63.0544 5.23277 62.0326 5.23277C61.0107 5.23277 60.1502 4.37227 60.1502 3.35042C60.1502 2.32857 61.0107 1.46807 62.0326 1.46807C63.1082 1.52185 63.9149 2.32857 63.9149 3.35042ZM63.4846 25.4008V7.11513H60.688V25.4008C60.688 25.6697 60.9031 25.8849 61.172 25.8849H63.0544C63.2695 25.8849 63.4846 25.6697 63.4846 25.4008ZM75.6393 6.68487C72.7889 6.79244 70.53 8.19076 69.0779 10.2345V7.59916C69.0779 7.33025 68.8628 7.11513 68.5939 7.11513H66.7115C66.4426 7.11513 66.2275 7.33025 66.2275 7.59916V25.4008C66.2275 25.6697 66.4426 25.8849 66.7115 25.8849H68.5939C68.8628 25.8849 69.0779 25.6697 69.0779 25.4008V16.4731C69.0779 12.7622 71.9821 9.69664 75.6393 9.48151C75.9082 9.48151 76.1233 9.26639 76.1233 8.99748V7.11513C76.1233 6.9 75.9082 6.68487 75.6393 6.68487ZM94.3552 20.2378H92.204C92.0426 20.2378 91.9351 20.2916 91.8275 20.3992C90.5905 22.2815 88.4393 23.5185 86.0191 23.5185C82.1468 23.5185 78.9737 20.3454 78.9737 16.4731C78.9737 12.6008 82.1468 9.42773 86.0191 9.42773C88.4393 9.42773 90.5905 10.6647 91.8275 12.5471C91.9351 12.6546 92.0426 12.7084 92.204 12.7084H94.3552C94.6241 12.7084 94.8393 12.4933 94.8393 12.2244C94.8393 12.1706 94.8393 12.063 94.7855 12.0092C93.172 8.78235 89.8376 6.57731 86.0191 6.57731C80.5872 6.57731 76.1771 10.9874 76.1771 16.4193C76.1771 21.8513 80.5872 26.2613 86.0191 26.2613C89.8376 26.2613 93.172 24.0563 94.7855 20.8294C94.8393 20.7756 94.8393 20.7219 94.8393 20.6143C94.7855 20.4529 94.6241 20.2378 94.3552 20.2378ZM99.9485 1.03782H98.0662C97.7973 1.03782 97.5821 1.25294 97.5821 1.52185V25.4546C97.5821 25.7235 97.7973 25.9387 98.0662 25.9387H99.9485C100.217 25.9387 100.433 25.7235 100.433 25.4546V1.52185C100.433 1.25294 100.217 1.03782 99.9485 1.03782ZM113.071 6.63109C107.639 6.63109 103.229 11.0412 103.229 16.4731C103.229 21.905 107.639 26.3151 113.071 26.3151C116.89 26.3151 120.224 24.1101 121.838 20.8832C121.891 20.8294 121.891 20.7756 121.891 20.6681C121.891 20.3992 121.676 20.184 121.407 20.184H119.256C119.095 20.184 118.987 20.2378 118.88 20.3992C117.589 22.2815 115.491 23.4647 113.071 23.4647C109.522 23.4647 106.564 20.8294 106.08 17.3874H122.429C122.698 17.3874 122.859 17.1723 122.913 16.9571C122.913 16.7958 122.913 16.6345 122.913 16.4731C122.913 11.0412 118.503 6.63109 113.071 6.63109ZM106.295 14.6445C107.101 11.6866 109.844 9.48151 113.071 9.48151C116.298 9.48151 119.041 11.6866 119.848 14.6445H106.295ZM150.18 0.553782C148.621 0.553782 147.384 1.79076 147.384 3.35042C147.384 4.91008 148.621 6.14706 150.18 6.14706C151.74 6.14706 152.977 4.91008 152.977 3.35042C152.977 1.84454 151.74 0.553782 150.18 0.553782ZM152.493 7.11513V25.4008C152.493 25.6697 152.278 25.8849 152.009 25.8849H148.244C147.975 25.8849 147.76 25.6697 147.76 25.4008V7.11513H152.493ZM135.606 26.3151C140.177 26.3151 144.049 23.142 145.125 18.8933C145.125 18.8395 145.125 18.8395 145.125 18.7857C145.125 18.5168 144.91 18.3017 144.641 18.3017H140.661C140.446 18.3017 140.285 18.4092 140.231 18.5706C139.424 20.3454 137.649 21.5824 135.552 21.5824C132.701 21.5824 130.389 19.2697 130.389 16.4193C130.389 13.5689 132.701 11.2563 135.552 11.2563C137.649 11.2563 139.424 12.4933 140.231 14.2681C140.285 14.4294 140.446 14.537 140.661 14.537H144.641C144.91 14.537 145.125 14.3218 145.125 14.0529C145.125 13.9992 145.125 13.9992 145.125 13.9454C144.049 9.69664 140.177 6.52353 135.606 6.52353C130.174 6.52353 125.764 10.9336 125.764 16.3655C125.764 21.9588 130.174 26.3151 135.606 26.3151Z"
      fill="currentColor"
    />
</svg>
